<svg width="152" height="150" viewBox="0 0 152 150" fill="none" xmlns="http://www.w3.org/2000/svg">
<g clip-path="url(#clip0_338_988)">
<rect width="151.281" height="149.084" fill="black"/>
<path d="M35.1572 71.2302L9.80947 11.2863H31.5606L52.1984 61.8961H39.2676L60.5049 11.2863H80.372L55.0243 71.2302H35.1572Z" fill="white"/>
<path d="M121.263 11.2863H141.473V71.2302H121.263V11.2863ZM102.595 71.2302H82.3851V11.2863H102.595V71.2302ZM122.633 49.1366H101.225V32.5235H122.633V49.1366Z" fill="white"/>
<path d="M14.6897 137.926V77.9818H31.3028L55.2803 117.117H46.5457L69.8382 77.9818H86.4512L86.6225 137.926H68.2111L68.0398 105.727H70.9514L55.0234 132.531H46.1175L29.5045 105.727H33.1011V137.926H14.6897Z" fill="white"/>
<path d="M113.7 139.296C108.677 139.296 103.824 138.725 99.1426 137.583C94.4613 136.441 90.6077 134.957 87.582 133.13L94.0902 118.401C96.9447 120.057 100.113 121.398 103.596 122.426C107.135 123.396 110.561 123.882 113.872 123.882C115.813 123.882 117.326 123.768 118.41 123.539C119.552 123.254 120.38 122.883 120.894 122.426C121.407 121.912 121.664 121.313 121.664 120.628C121.664 119.543 121.065 118.687 119.866 118.059C118.667 117.431 117.069 116.917 115.071 116.517C113.13 116.06 110.989 115.604 108.648 115.147C106.307 114.633 103.938 113.977 101.54 113.177C99.1997 112.378 97.0303 111.322 95.0322 110.009C93.0911 108.696 91.5212 106.983 90.3223 104.871C89.1234 102.702 88.524 100.018 88.524 96.8213C88.524 93.1105 89.5516 89.7422 91.6068 86.7165C93.7191 83.6336 96.8305 81.1788 100.941 79.3519C105.108 77.5251 110.275 76.6116 116.441 76.6116C120.494 76.6116 124.49 77.0398 128.429 77.8962C132.369 78.7525 135.908 80.0656 139.048 81.8353L132.968 96.4788C129.999 94.9944 127.116 93.8812 124.319 93.139C121.579 92.3969 118.896 92.0258 116.269 92.0258C114.328 92.0258 112.787 92.1971 111.645 92.5396C110.503 92.8821 109.676 93.3389 109.162 93.9098C108.705 94.4806 108.477 95.1086 108.477 95.7937C108.477 96.8213 109.076 97.6491 110.275 98.2771C111.474 98.848 113.044 99.3332 114.985 99.7329C116.983 100.133 119.152 100.561 121.493 101.017C123.891 101.474 126.26 102.102 128.601 102.901C130.941 103.701 133.082 104.757 135.023 106.07C137.021 107.383 138.62 109.096 139.819 111.208C141.018 113.32 141.617 115.946 141.617 119.086C141.617 122.74 140.561 126.108 138.449 129.191C136.393 132.217 133.311 134.672 129.2 136.556C125.09 138.382 119.923 139.296 113.7 139.296Z" fill="white"/>
<rect x="86.3115" y="9.80817" width="3.92327" height="64.7339" fill="black"/>
<rect x="78.4658" y="74.5421" width="3.92327" height="64.7339" fill="black"/>
</g>
<defs>
<clipPath id="clip0_338_988">
<rect width="151.281" height="149.084" fill="white"/>
</clipPath>
</defs>
</svg>
